# xmcd
#
# Track frame offsets: 
#        150
#        18003
#        28490
#        46747
#        57107
#        69003
#        85686
#        102359
#        117052
#        131557
#        141725
#        155589
#        162599
#
# Disc length: 2289 seconds
#
# Revision: 0
# Processed by: cddbd v1.5.2PL0 Copyright (c) Steve Scherf et al.
# Submitted via: ExactAudioCopy v0.99pb3
#
DISCID=a908ef0d
DTITLE=Seth Kauffman - Ting
DYEAR=2006
DGENRE=Blues
TTITLE0=Get You Love Stole
TTITLE1=Black Biscuit
TTITLE2=Meadowlark
TTITLE3=Jug Hustler Blues
TTITLE4=Cold Out Here
TTITLE5=Somente Seja De
TTITLE6=I'm A Martyr
TTITLE7=Reddingsbaadjie
TTITLE8=Burden To My King
TTITLE9=Biarritz Blues
TTITLE10=Detroit Sunrise
TTITLE11=Thick (Hidden Track)
TTITLE12=Juicy (Hidden Track)
EXTD=
EXTT0=
EXTT1=
EXTT2=
EXTT3=
EXTT4=
EXTT5=
EXTT6=
EXTT7=
EXTT8=
EXTT9=
EXTT10=
EXTT11=
EXTT12=
PLAYORDER=
